<?xml version="1.0" encoding="utf-8"?>
<!-- Generator: Adobe Illustrator 27.4.1, SVG Export Plug-In . SVG Version: 6.00 Build 0)  -->
<svg version="1.1" id="图层_1" xmlns="http://www.w3.org/2000/svg" xmlns:xlink="http://www.w3.org/1999/xlink" x="0px" y="0px"
	 viewBox="0 0 720 720" style="enable-background:new 0 0 720 720;" xml:space="preserve">
<style type="text/css">
	.st0{fill:none;}
</style>
<g>
	<rect x="0" y="0" class="st0" width="720" height="720"/>
</g>
<path d="M600.86,226.96h0.67l-0.34-0.58L719.33,21.76c1.91-3.3-0.48-7.43-4.29-7.43h-79.85c-1.77,0-3.4,0.94-4.29,2.48
	l-74.26,128.62c-0.88,1.53-2.52,2.48-4.29,2.48l-547.4,0c-3.81,0-6.19,4.13-4.29,7.43l39.93,69.15c0.88,1.53,2.52,2.48,4.29,2.48
	H194.8l-0.06,0.11L470.2,704.19c1.91,3.3,6.67,3.3,8.57,0l39.93-69.15c0.88-1.53,0.88-3.42,0-4.95l-75.75-131.2h0.92L600.86,226.96z
	 M294.53,226.96H501c3.81,0,6.19,4.13,4.29,7.43l-103.23,178.8c-1.91,3.3-6.67,3.3-8.57,0l-103.23-178.8
	C288.34,231.09,290.72,226.96,294.53,226.96z"/>
</svg>
